<?xml version="1.0" encoding="UTF-8"?>
<svg xmlns="http://www.w3.org/2000/svg" width="886" height="155" viewBox="0 0 886 155" fill="none">
  <path d="M124.6 0.800201C138.6 0.800201 148.8 7.5002 155.2 19.9002C157.6 24.5002 158.5 29.5002 158.5 34.7002C158.5 59.1002 158.5 83.5002 158.5 107.9C158.5 112.1 158.5 116.4 158.5 120.6C158.4 137.2 146.5 151.1 130.1 153.7C128 154 125.8 154.1 123.6 154.1C83.4001 154.1 56.1001 154.1 15.9001 154.1C15.1001 154.1 1.3001 154.1 0.600098 154.1C0.600098 152.3 0.600098 5.5002 0.600098 0.700195L124.6 0.800201ZM25.3001 129.7C26.3001 129.7 27.2001 129.7 28.1001 129.7C57.4001 129.7 86.6001 129.7 115.9 129.7C116.7 129.7 117.5 129.7 118.3 129.6C127.9 129.2 134.2 121 134.2 112.6C134.1 89.2002 134.2 65.7002 134.2 42.3002C134.2 41.1002 134.3 39.9002 134 38.7002C132.3 30.7002 125.6 25.3002 117.3 25.3002C87.3001 25.3002 57.3001 25.3002 27.3001 25.3002C26.7001 25.3002 26.1001 25.3002 25.3001 25.3002C25.3001 60.1002 25.3001 94.7002 25.3001 129.7Z" fill="#951B81"></path>
  <path d="M257.3 129.7C258.3 129.7 259 129.7 259.8 129.7C289.4 129.7 319 129.7 348.6 129.7C352.1 129.7 355.5 129.2 358.5 127.3C363.2 124.4 366.3 120.2 366.5 114.7C366.4 106.6 366.5 96.3002 366.5 86.7002C361.2 86.7002 355.9 86.7002 350.6 86.7002C345.2 86.7002 339.9 86.7002 334.5 86.7002C329.2 86.7002 323.7 86.7002 318.2 86.7002C318.2 85.9002 318.2 85.3002 318.2 84.7002C318.2 80.7002 318.2 76.7002 318.2 72.7002C318.1 66.2002 323 62.0002 328.7 62.0002C346.1 62.0002 363.4 62.0002 380.8 62.0002C384.2 62.0002 387.1 63.3002 389.2 66.0002C390.5 67.7002 391.2 69.6002 391.2 71.8002C391.2 88.6002 391.3 105 391.2 121.7C391.2 139.4 377.3 152.7 360.5 153.9C358.8 154 357.1 154.1 355.5 154.1C315.7 154.1 275.8 154.1 236 154.1C235 154.1 233.9 154.1 232.7 154.1C232.7 153 232.8 152.2 232.8 151.4C232.7 125.2 232.7 76.3002 232.7 35.0002C232.7 20.2002 239.5 9.8002 252.9 3.6002C257 1.7002 262.7 0.700195 266.4 0.700195C301.3 0.700195 336.1 0.700195 371 0.700195C377.4 0.700195 381.3 4.7002 381.4 11.0002C381.4 12.3002 381.4 13.6002 381.4 14.8002C381.5 21.5002 376.3 25.1002 371 25.1002C339.6 25.1002 308 25.1002 276.5 25.1002C274.7 25.1002 273 25.1002 271.2 25.4002C263.2 26.9002 257.7 33.2002 257.3 41.4002C257.3 42.0002 257.3 42.8002 257.3 43.4002" fill="#951B81"></path>
  <path d="M183.4 154.2C183.4 103.1 183.4 52.5998 183.4 0.799805C191.5 0.799805 200.1 0.799805 208 0.799805C208 5.8998 208 149.3 208 154.2C200.1 154.2 191.6 154.2 183.4 154.2Z" fill="#951B81"></path>
  <path d="M603.7 153.3C603.7 153.8 603.3 154.1 603 154.2C602.8 154.3 601.5 154.2 600.8 154.2C587.8 154.2 574.6 154.2 561.6 154.2C548.6 154.2 535.5 154.2 522.4 154.2C521.7 154.2 520.4 154.2 520.2 154.2C519.9 154.1 519.5 153.9 519.5 153.3C519.5 152.8 520.1 152.6 520.4 152.5C521 152.3 521.5 152.3 522.1 152.1C537.9 149 549.2 135.6 549.2 119.5C549.2 106 549.2 92.5002 549.2 79.0002C549.2 78.7002 549.2 78.3002 549.2 78.0002C549.2 77.9002 549.2 77.7002 549.2 77.6002C549.2 64.0002 549.2 49.1002 549.2 35.6002C549.1 19.5002 537.9 6.1002 522.1 3.0002C521.5 2.9002 521 2.8002 520.4 2.6002C520.1 2.5002 519.5 2.3002 519.5 1.8002C519.5 1.3002 519.9 1.0002 520.2 0.9002C520.4 0.8002 521.7 0.9002 522.4 0.9002C535.4 0.9002 548.6 0.9002 561.6 0.9002C574.6 0.9002 587.7 0.9002 600.8 0.9002C601.5 0.9002 602.8 0.9002 603 0.9002C603.3 1.0002 603.7 1.2002 603.7 1.8002C603.7 2.3002 603.1 2.5002 602.8 2.6002C602.2 2.8002 601.7 2.8002 601.1 3.0002C585.3 6.1002 574 19.5002 574 35.6002C574 37.0002 574 38.4002 574 39.8002C574 47.6002 574 56.0002 574 64.6002C574 69.0002 574 73.4002 574 77.7002C574 77.8002 574 78.0002 574 78.1002C574 78.4002 574 78.8002 574 79.1002C574 82.8002 574 86.5002 574 90.2002C574 96.3002 574 102.3 574 108C574 111.9 574 115.8 574 119.7C574.1 135.8 585.3 149.2 601.1 152.3C601.7 152.4 602.2 152.5 602.8 152.7C603.1 152.6 603.7 152.8 603.7 153.3ZM706.9 0.800201C706.2 0.800201 704.9 0.800201 704.7 0.800201C704.4 0.900201 704 1.1002 704 1.7002C704 2.2002 704.6 2.4002 704.9 2.5002C705.5 2.7002 706 2.7002 706.6 2.9002C722.4 6.0002 733.7 19.4002 733.7 35.5002C733.7 49.0002 733.7 63.9002 733.7 77.5002C733.7 77.6002 733.7 77.8002 733.7 77.9002C733.7 78.2002 733.7 78.6002 733.7 78.9002C733.7 92.4002 733.7 105.9 733.7 119.4C733.6 135.5 722.4 148.9 706.6 152C706 152.1 705.5 152.2 704.9 152.4C704.6 152.5 704 152.7 704 153.2C704 153.7 704.4 154 704.7 154.1C704.9 154.2 706.2 154.1 706.9 154.1C723.1 154.1 739.5 154.1 755.6 154.1C756.4 154.1 757.5 154.1 758.4 154.1C758.4 152 758.4 116.2 758.4 79.7002C758.4 78.9002 758.4 78.2002 758.4 77.4002C758.4 40.8002 758.4 2.8002 758.4 0.700195C757.5 0.700195 756.4 0.700195 755.6 0.700195C739.5 0.800195 723.1 0.800201 706.9 0.800201ZM783 0.800201V62.0002H885.4V0.800201H783ZM783 154.2H885.4V86.8002H783V154.2ZM524.7 114.1V40.8002C524.7 32.2002 517.7 25.2002 509.1 25.2002H431.4C422.8 25.2002 415.8 32.2002 415.8 40.8002V114.1C415.8 122.7 422.8 129.7 431.4 129.7H509.1C517.7 129.7 524.7 122.8 524.7 114.1ZM709.1 114.1V40.8002C709.1 32.2002 702.1 25.2002 693.5 25.2002H614.2C605.6 25.2002 598.6 32.2002 598.6 40.8002V114.1C598.6 122.7 605.6 129.7 614.2 129.7H693.5C702.1 129.7 709.1 122.7 709.1 114.1Z" fill="url(#paint0_linear)"></path>
  <defs>
    <linearGradient id="paint0_linear" x1="-94.1612" y1="77.5065" x2="907.532" y2="77.5065" gradientUnits="userSpaceOnUse">
      <stop stop-color="#E6007E"></stop>
      <stop offset="0.2517" stop-color="#E3007E"></stop>
      <stop offset="0.586" stop-color="#BB0B80"></stop>
      <stop offset="0.8911" stop-color="#951B81"></stop>
    </linearGradient>
  </defs>
</svg>
